<?xml version="1.0" encoding="UTF-8" standalone="no"?>
<!DOCTYPE svg PUBLIC "-//W3C//DTD SVG 1.1//EN"
 "http://www.w3.org/Graphics/SVG/1.1/DTD/svg11.dtd">
<!-- Generated by graphviz version 8.1.0 (20230707.0739)
 -->
<!-- Pages: 1 -->
<svg width="620pt" height="188pt"
 viewBox="0.00 0.00 619.62 188.00" xmlns="http://www.w3.org/2000/svg" xmlns:xlink="http://www.w3.org/1999/xlink">
<g id="graph0" class="graph" transform="scale(1 1) rotate(0) translate(4 184)">
<polygon fill="white" stroke="none" points="-4,4 -4,-184 615.62,-184 615.62,4 -4,4"/>
<!-- variant_calling -->
<g id="node1" class="node">
<title>variant_calling</title>
<polygon fill="lemonchiffon" stroke="black" stroke-width="2" points="301.5,-180 298.5,-184 277.5,-184 274.5,-180 204.5,-180 204.5,-144 301.5,-144 301.5,-180"/>
<text text-anchor="start" x="212.5" y="-156.95" font-family="Times,serif" font-size="14.00">variant_calling</text>
</g>
<!-- variant_callingresults -->
<g id="node2" class="node">
<title>variant_callingresults</title>
<polygon fill="lemonchiffon" stroke="black" stroke-width="2" points="198,-108 195,-112 174,-112 171,-108 144,-108 144,-72 198,-72 198,-108"/>
<text text-anchor="start" x="152" y="-84.95" font-family="Times,serif" font-size="14.00">results</text>
</g>
<!-- variant_calling&#45;&gt;variant_callingresults -->
<g id="edge1" class="edge">
<title>variant_calling&#45;&gt;variant_callingresults</title>
<path fill="none" stroke="black" d="M232.73,-143.7C222.68,-135.11 210.37,-124.61 199.39,-115.24"/>
<polygon fill="black" stroke="black" points="202.2,-112.18 192.32,-108.35 197.65,-117.5 202.2,-112.18"/>
</g>
<!-- variant_callingdata -->
<g id="node3" class="node">
<title>variant_callingdata</title>
<polygon fill="lemonchiffon" stroke="black" stroke-width="2" points="423,-108 420,-112 399,-112 396,-108 369,-108 369,-72 423,-72 423,-108"/>
<text text-anchor="start" x="377" y="-84.95" font-family="Times,serif" font-size="14.00">data</text>
</g>
<!-- variant_calling&#45;&gt;variant_callingdata -->
<g id="edge2" class="edge">
<title>variant_calling&#45;&gt;variant_callingdata</title>
<path fill="none" stroke="black" d="M288.72,-143.52C310.14,-133.03 337.34,-119.71 358.99,-109.12"/>
<polygon fill="black" stroke="black" points="360.37,-111.85 367.82,-104.31 357.3,-105.56 360.37,-111.85"/>
</g>
<!-- variant_callingresultsbcf -->
<g id="node4" class="node">
<title>variant_callingresultsbcf</title>
<polygon fill="lemonchiffon" stroke="black" stroke-width="2" points="54,-36 51,-40 30,-40 27,-36 0,-36 0,0 54,0 54,-36"/>
<text text-anchor="start" x="8" y="-12.95" font-family="Times,serif" font-size="14.00">bcf</text>
</g>
<!-- variant_callingresults&#45;&gt;variant_callingresultsbcf -->
<g id="edge3" class="edge">
<title>variant_callingresults&#45;&gt;variant_callingresultsbcf</title>
<path fill="none" stroke="black" d="M143.58,-75.67C121.06,-64.72 88.94,-49.11 64.12,-37.05"/>
<polygon fill="black" stroke="black" points="65.85,-33.51 55.32,-32.28 62.79,-39.8 65.85,-33.51"/>
</g>
<!-- variant_callingresultssam -->
<g id="node5" class="node">
<title>variant_callingresultssam</title>
<polygon fill="lemonchiffon" stroke="black" stroke-width="2" points="126,-36 123,-40 102,-40 99,-36 72,-36 72,0 126,0 126,-36"/>
<text text-anchor="start" x="80" y="-12.95" font-family="Times,serif" font-size="14.00">sam</text>
</g>
<!-- variant_callingresults&#45;&gt;variant_callingresultssam -->
<g id="edge4" class="edge">
<title>variant_callingresults&#45;&gt;variant_callingresultssam</title>
<path fill="none" stroke="black" d="M153.2,-71.7C144.55,-63.28 133.99,-53.02 124.5,-43.79"/>
<polygon fill="black" stroke="black" points="127.45,-41.81 117.84,-37.35 122.57,-46.83 127.45,-41.81"/>
</g>
<!-- variant_callingresultsbam -->
<g id="node6" class="node">
<title>variant_callingresultsbam</title>
<polygon fill="lemonchiffon" stroke="black" stroke-width="2" points="198,-36 195,-40 174,-40 171,-36 144,-36 144,0 198,0 198,-36"/>
<text text-anchor="start" x="152" y="-12.95" font-family="Times,serif" font-size="14.00">bam</text>
</g>
<!-- variant_callingresults&#45;&gt;variant_callingresultsbam -->
<g id="edge5" class="edge">
<title>variant_callingresults&#45;&gt;variant_callingresultsbam</title>
<path fill="none" stroke="black" d="M171,-71.7C171,-64.24 171,-55.32 171,-46.97"/>
<polygon fill="black" stroke="black" points="174.5,-47.1 171,-37.1 167.5,-47.1 174.5,-47.1"/>
</g>
<!-- variant_callingresultsvcf -->
<g id="node7" class="node">
<title>variant_callingresultsvcf</title>
<polygon fill="lemonchiffon" stroke="black" stroke-width="2" points="270,-36 267,-40 246,-40 243,-36 216,-36 216,0 270,0 270,-36"/>
<text text-anchor="start" x="224" y="-12.95" font-family="Times,serif" font-size="14.00">vcf</text>
</g>
<!-- variant_callingresults&#45;&gt;variant_callingresultsvcf -->
<g id="edge6" class="edge">
<title>variant_callingresults&#45;&gt;variant_callingresultsvcf</title>
<path fill="none" stroke="black" d="M188.8,-71.7C197.45,-63.28 208.01,-53.02 217.5,-43.79"/>
<polygon fill="black" stroke="black" points="219.43,-46.83 224.16,-37.35 214.55,-41.81 219.43,-46.83"/>
</g>
<!-- variant_callingdatatrimmed_fastq -->
<g id="node8" class="node">
<title>variant_callingdatatrimmed_fastq</title>
<polygon fill="lemonchiffon" stroke="black" stroke-width="2" points="384.12,-36 381.12,-40 360.12,-40 357.12,-36 287.88,-36 287.88,0 384.12,0 384.12,-36"/>
<text text-anchor="start" x="295.88" y="-12.95" font-family="Times,serif" font-size="14.00">trimmed_fastq</text>
</g>
<!-- variant_callingdata&#45;&gt;variant_callingdatatrimmed_fastq -->
<g id="edge7" class="edge">
<title>variant_callingdata&#45;&gt;variant_callingdatatrimmed_fastq</title>
<path fill="none" stroke="black" d="M381.17,-71.7C374.12,-63.47 365.56,-53.48 357.79,-44.42"/>
<polygon fill="black" stroke="black" points="359.83,-42.42 350.66,-37.1 354.51,-46.97 359.83,-42.42"/>
</g>
<!-- variant_callingdatauntrimmed_fastq -->
<g id="node9" class="node">
<title>variant_callingdatauntrimmed_fastq</title>
<polygon fill="lemonchiffon" stroke="black" stroke-width="2" points="511.88,-36 508.88,-40 487.88,-40 484.88,-36 402.12,-36 402.12,0 511.88,0 511.88,-36"/>
<text text-anchor="start" x="410.12" y="-12.95" font-family="Times,serif" font-size="14.00">untrimmed_fastq</text>
</g>
<!-- variant_callingdata&#45;&gt;variant_callingdatauntrimmed_fastq -->
<g id="edge8" class="edge">
<title>variant_callingdata&#45;&gt;variant_callingdatauntrimmed_fastq</title>
<path fill="none" stroke="black" d="M411.08,-71.7C418.32,-63.39 427.13,-53.28 435.09,-44.14"/>
<polygon fill="black" stroke="black" points="438.16,-46.94 442.09,-37.1 432.89,-42.34 438.16,-46.94"/>
</g>
<!-- variant_callingdataref_genome -->
<g id="node10" class="node">
<title>variant_callingdataref_genome</title>
<polygon fill="lemonchiffon" stroke="black" stroke-width="2" points="611.62,-36 608.62,-40 587.62,-40 584.62,-36 530.38,-36 530.38,0 611.62,0 611.62,-36"/>
<text text-anchor="start" x="538.38" y="-12.95" font-family="Times,serif" font-size="14.00">ref_genome</text>
</g>
<!-- variant_callingdata&#45;&gt;variant_callingdataref_genome -->
<g id="edge9" class="edge">
<title>variant_callingdata&#45;&gt;variant_callingdataref_genome</title>
<path fill="none" stroke="black" d="M423.34,-78.06C449.19,-67.72 488.62,-51.95 520.23,-39.31"/>
<polygon fill="black" stroke="black" points="521.21,-42.29 529.19,-35.32 518.61,-35.79 521.21,-42.29"/>
</g>
</g>
</svg>
